<svg id="Capa_1" enable-background="new 0 0 512 512" height="512" viewBox="0 0 512 512" width="512" xmlns="http://www.w3.org/2000/svg"><g><g><g><path d="m251.462 504.5c-.39 0-.777-.004-1.168-.012l-136.949-2.863c-16.461-.344-31.794-7.922-42.066-20.791-10.262-12.857-14.249-29.47-10.939-45.578 6.188-30.11 21.108-89.128 51.523-146.105 22.825-42.761 50.027-76.782 81.324-101.805h-51.08l-2.736 5.198c-9.589 18.214-28.334 29.53-48.92 29.53h-4.477c-16.737 0-32.386-7.454-42.931-20.451-10.546-12.997-14.617-29.845-11.17-46.223l21.897-104.004c5.354-25.434 28.106-43.896 54.1-43.896h159.074c17.314 0 34.326 3.164 50.566 9.403 13.258 5.094 34.992 11.166 63.252 11.166 11.69 0 23.605-1.071 35.415-3.183 3.238-.579 6.542-.873 9.819-.873 30.509 0 55.331 24.794 55.331 55.27v64.885c0 20.432-11.182 39.107-29.184 48.734-32.554 17.411-139.245 87.496-145.448 258.389-1.083 29.835-25.344 53.207-55.233 53.209z" fill="#fee97d"/></g></g><g><g><path d="m107.87 45.308h159.074c12.657 0 25.191 2.348 37.006 6.888 21.413 8.227 64.01 19.722 118.884 9.908 10.767-1.926 20.685 6.242 20.685 17.179v64.885c0 6.44-3.529 12.359-9.208 15.396-35.036 18.739-158.423 98.164-165.399 290.357-.345 9.512-8.309 16.966-17.825 16.767l-136.95-2.863c-10.903-.228-18.957-10.278-16.761-20.96 11.814-57.489 55.564-218.515 180.603-259.274 7.153-2.332 11.957-9.053 11.957-16.576 0-9.653-7.825-17.478-17.478-17.478h-142.622c-6.488 0-12.443 3.594-15.465 9.335l-8.454 16.057c-3.023 5.741-8.977 9.335-15.465 9.335h-4.477c-11.101 0-19.39-10.215-17.103-21.078l21.895-104.001c1.703-8.088 8.838-13.877 17.103-13.877z" fill="#fd8087"/></g></g><g><g><path d="m422.833 62.104c-3.147.563-6.25 1.048-9.315 1.475v60.59c0 6.44-3.529 12.358-9.208 15.396-35.036 18.739-158.423 98.164-165.399 290.357-.345 9.512-8.309 16.966-17.825 16.767l-123.915-2.591c-1.361 10.21 6.483 19.508 16.965 19.728l136.95 2.863c9.516.199 17.48-7.255 17.825-16.767 6.976-192.193 130.363-271.618 165.399-290.357 5.679-3.037 9.208-8.956 9.208-15.396v-64.886c.001-10.937-9.918-19.105-20.685-17.179z" fill="#fe646f"/></g></g><g><path d="m425.996 16.514c-3.72 0-7.468.333-11.14.99-11.374 2.034-22.845 3.066-34.094 3.066-27.111 0-47.897-5.801-60.562-10.667-17.102-6.571-35.02-9.903-53.257-9.903h-159.073c-29.52 0-55.359 20.965-61.439 49.851l-21.896 104.003c-3.915 18.6.708 37.733 12.685 52.494 11.977 14.76 29.748 23.225 48.755 23.225h4.477c23.377 0 44.665-12.85 55.557-33.536l.627-1.191h26.435c-25.659 23.973-48.417 54.42-67.822 90.773-30.859 57.81-45.984 117.62-52.253 148.127-3.759 18.296.769 37.164 12.424 51.767 11.665 14.614 29.077 23.22 47.77 23.61l136.947 2.862c.443.01.883.014 1.326.014 33.945-.002 61.498-26.549 62.728-60.435 6.058-166.896 109.83-235.115 141.49-252.048 20.445-10.935 33.146-32.143 33.146-55.348v-64.885c-.001-34.611-28.186-62.769-62.831-62.769zm47.83 127.655c0 17.661-9.664 33.801-25.221 42.121-33.444 17.887-143.058 89.839-149.406 264.731-.935 25.781-21.904 45.978-47.737 45.979-.337 0-.671-.003-1.01-.011l-136.95-2.863c-14.229-.297-27.48-6.847-36.36-17.971-8.869-11.112-12.315-25.469-9.454-39.39 6.105-29.712 20.824-87.941 50.793-144.083 22.247-41.678 48.958-75.147 79.391-99.479 2.488-1.989 3.448-5.333 2.394-8.339s-3.892-5.019-7.077-5.019h-51.079c-2.784 0-5.34 1.542-6.637 4.006l-2.736 5.197c-8.289 15.744-24.491 25.524-42.283 25.524h-4.477c-14.467 0-27.992-6.443-37.107-17.677-9.116-11.234-12.634-25.796-9.655-39.953l21.895-104.002c4.627-21.984 24.292-37.94 46.76-37.94h159.073c16.39 0 32.498 2.996 47.877 8.904 13.85 5.322 36.531 11.666 65.942 11.666 12.132 0 24.491-1.11 36.734-3.3 2.803-.501 5.662-.755 8.499-.755 26.374 0 47.83 21.429 47.83 47.77v64.884z"/><path d="m442.098 60.177c-5.716-4.784-13.219-6.773-20.584-5.456-53.483 9.563-94.93-1.863-114.873-9.526-12.757-4.902-26.113-7.387-39.697-7.387h-66.916c-4.143 0-7.5 3.358-7.5 7.5s3.357 7.5 7.5 7.5h66.916c11.737 0 23.283 2.149 34.316 6.389 21.403 8.224 65.831 20.496 122.895 10.29 2.983-.533 6.014.266 8.316 2.193 2.288 1.915 3.549 4.616 3.549 7.604v64.885c0 3.687-2.01 7.052-5.245 8.783-37.939 20.292-162.277 101.656-169.357 296.697-.194 5.374-4.806 9.641-10.157 9.542l-98.791-2.274c-.06-.001-.117-.002-.176-.002-4.062 0-7.401 3.245-7.495 7.327-.096 4.141 3.185 7.576 7.325 7.671l98.807 2.274c.176.003.35.005.524.005 13.325-.001 24.469-10.66 24.953-23.999 6.789-187.046 125.284-264.677 161.44-284.015 8.124-4.345 13.171-12.779 13.171-22.01v-64.885c-.001-7.397-3.253-14.361-8.921-19.106z"/><path d="m122.836 456.934-8.159-.589c-.128-.009-.256-.015-.383-.018-2.976-.062-5.746-1.432-7.603-3.757-1.847-2.314-2.564-5.301-1.97-8.194 5.694-27.709 19.387-81.949 47.112-133.889 33.399-62.569 76.622-102.864 128.469-119.764 10.247-3.341 17.132-12.868 17.132-23.708 0-13.772-11.205-24.978-24.978-24.978h-142.62c-9.3 0-17.769 5.112-22.102 13.341l-8.454 16.057c-1.73 3.287-5.113 5.329-8.828 5.329h-4.478c-3.021 0-5.845-1.345-7.747-3.691-1.903-2.346-2.638-5.387-2.016-8.343l21.895-104c.967-4.59 5.072-7.922 9.764-7.922h62.157c4.143 0 7.5-3.358 7.5-7.5s-3.357-7.5-7.5-7.5h-62.157c-11.744 0-22.023 8.341-24.441 19.832l-21.896 104.002c-1.558 7.399.281 15.011 5.045 20.884 4.765 5.872 11.834 9.24 19.396 9.24h4.478c9.3 0 17.769-5.112 22.102-13.341l8.454-16.057c1.73-3.287 5.113-5.329 8.828-5.329h142.621c5.502 0 9.978 4.476 9.978 9.978 0 4.328-2.725 8.124-6.78 9.446-55.656 18.142-101.767 60.858-137.053 126.962-28.616 53.607-42.715 109.429-48.573 137.933-1.493 7.268.307 14.766 4.939 20.571 4.599 5.762 11.442 9.177 18.803 9.392l7.985.576c.184.013.366.02.548.02 3.896 0 7.188-3.013 7.473-6.961.297-4.133-2.81-7.725-6.941-8.022z"/></g></g></svg>